<?xml version="1.0" encoding="iso-8859-1"?>
<!-- Generator: Adobe Illustrator 19.0.0, SVG Export Plug-In . SVG Version: 6.00 Build 0)  -->
<svg version="1.1" id="Capa_1" xmlns="http://www.w3.org/2000/svg" xmlns:xlink="http://www.w3.org/1999/xlink" x="0px" y="0px"
	 viewBox="0 0 512.001 512.001" style="enable-background:new 0 0 512.001 512.001;" xml:space="preserve">
<path style="fill:#FF4C4C;" d="M156.299,508.917l-23.889-66.395c-0.717-1.992-2.686-3.251-4.795-3.066l-70.29,6.185
	c-3.855,0.339-6.421-3.894-4.336-7.155l180.83-282.855l111.625,71.363L164.613,509.849
	C162.529,513.11,157.609,512.558,156.299,508.917z"/>
<path style="fill:#E1EFFB;" d="M306.813,202.296L267.8,177.355L100.951,441.803l26.664-2.346c2.109-0.186,4.078,1.073,4.795,3.066
	l8.294,23.05L306.813,202.296z"/>
<path style="fill:#FF4C4C;" d="M355.701,508.917l23.889-66.395c0.717-1.992,2.686-3.251,4.795-3.066l70.29,6.185
	c3.855,0.339,6.421-3.894,4.336-7.155l-180.83-282.855l-111.625,71.363L347.387,509.85
	C349.471,513.11,354.391,512.558,355.701,508.917z"/>
<path style="fill:#E1EFFB;" d="M205.185,202.296l39.013-24.941l166.849,264.448l-26.664-2.346c-2.109-0.186-4.078,1.073-4.795,3.066
	l-8.294,23.05L205.185,202.296z"/>
<path style="fill:#FFB125;" d="M274.807,8.303L274.807,8.303c7.662,8.402,19.968,10.702,30.148,5.636l0,0
	c13.412-6.675,29.659-0.381,35.074,13.588l0,0c4.11,10.602,14.754,17.193,26.076,16.146l0,0
	c14.917-1.379,27.794,10.359,27.797,25.34l0,0c0.002,11.371,7.547,21.361,18.483,24.475l0,0c14.408,4.103,22.175,19.7,16.766,33.671
	l0,0c-4.106,10.604-0.68,22.645,8.393,29.499l0,0c11.953,9.031,13.561,26.38,3.471,37.453l0,0c-7.659,8.405-8.814,20.87-2.83,30.539
	l0,0c7.884,12.739,3.116,29.498-10.294,36.178l0,0c-10.178,5.071-15.758,16.277-13.671,27.455l0,0
	c2.75,14.727-7.751,28.631-22.667,30.017l0,0c-11.322,1.051-20.574,9.485-22.666,20.662l0,0
	c-2.756,14.725-17.57,23.898-31.98,19.801l0,0c-10.938-3.11-22.611,1.413-28.599,11.079l0,0
	c-7.889,12.736-25.017,15.937-36.973,6.912l0,0c-9.076-6.851-21.594-6.851-30.67,0l0,0c-11.957,9.026-29.084,5.824-36.973-6.912l0,0
	c-5.988-9.667-17.661-14.189-28.599-11.079l0,0c-14.41,4.097-29.224-5.076-31.98-19.801l0,0
	c-2.092-11.177-11.343-19.611-22.666-20.662l0,0c-14.917-1.385-25.417-15.29-22.667-30.017l0,0
	c2.087-11.178-3.493-22.384-13.671-27.455l0,0c-13.409-6.68-18.177-23.439-10.294-36.178l0,0c5.984-9.669,4.829-22.134-2.83-30.539
	l0,0c-10.09-11.073-8.483-28.423,3.471-37.453l0,0c9.073-6.854,12.499-18.895,8.393-29.499l0,0
	c-5.409-13.971,2.358-29.568,16.766-33.671l0,0c10.936-3.114,18.481-13.104,18.483-24.475l0,0
	c0.003-14.981,12.88-26.72,27.797-25.34l0,0c11.323,1.047,21.966-5.543,26.076-16.146l0,0c5.415-13.968,21.662-20.263,35.074-13.588
	l0,0c10.18,5.066,22.486,2.766,30.148-5.636l0,0C247.288-2.766,264.712-2.766,274.807,8.303z"/>
<path style="fill:#FF901D;" d="M441.016,194.111L441.016,194.111c10.09-11.073,8.483-28.423-3.471-37.454l0,0
	c-9.073-6.854-12.499-18.895-8.393-29.499c5.409-13.971-2.358-29.568-16.766-33.671l0,0c-10.936-3.114-18.481-13.104-18.483-24.475
	l0,0c-0.003-14.981-12.88-26.72-27.797-25.34c-11.323,1.047-21.966-5.543-26.076-16.146c-5.415-13.968-21.662-20.263-35.074-13.588
	l0,0c-10.18,5.066-22.486,2.766-30.148-5.636c-10.095-11.069-27.519-11.069-37.614,0c-1.327,1.455-2.8,2.714-4.37,3.796
	c7.497,5.168,17.361,6.029,25.778,1.84l0,0c13.412-6.675,29.659-0.381,35.074,13.588c4.11,10.602,14.754,17.193,26.076,16.146
	c14.917-1.379,27.794,10.359,27.797,25.34l0,0c0.002,11.371,7.547,21.361,18.483,24.475l0,0c14.408,4.103,22.175,19.7,16.766,33.671
	c-4.106,10.604-0.68,22.645,8.393,29.499l0,0c11.953,9.031,13.561,26.38,3.471,37.454l0,0c-7.659,8.405-8.814,20.87-2.83,30.539
	c7.884,12.739,3.116,29.498-10.294,36.178l0,0c-10.178,5.07-15.758,16.277-13.671,27.455c2.75,14.727-7.751,28.631-22.667,30.017
	l0,0c-11.322,1.051-20.574,9.485-22.666,20.662l0,0c-2.756,14.725-17.57,23.898-31.98,19.801
	c-10.938-3.11-22.611,1.413-28.599,11.079c-0.471,0.76-0.977,1.485-1.511,2.177c3.863,0.684,7.605,2.253,10.892,4.735l0,0
	c11.957,9.026,29.084,5.824,36.973-6.912c5.988-9.667,17.661-14.189,28.599-11.079c14.41,4.097,29.224-5.076,31.98-19.801l0,0
	c2.092-11.177,11.343-19.611,22.666-20.662l0,0c14.917-1.385,25.417-15.29,22.667-30.017c-2.087-11.178,3.493-22.384,13.671-27.455
	l0,0c13.409-6.68,18.177-23.439,10.294-36.178C432.201,214.982,433.356,202.516,441.016,194.111z"/>
<circle style="fill:#E1EFFB;" cx="256" cy="190.951" r="139.53"/>
<path style="fill:#C3D8E5;" d="M256,51.421c-7.897,0-15.638,0.666-23.177,1.927c66.026,11.041,116.351,68.439,116.351,137.601
	S298.85,317.509,232.823,328.55c7.539,1.261,15.28,1.927,23.177,1.927c77.059,0,139.528-62.469,139.528-139.528
	S333.059,51.421,256,51.421z"/>
<path style="fill:#61AFF6;" d="M345.637,165.163c-0.004-0.014-0.006-0.029-0.011-0.043l0,0c-0.284-0.876-1.024-1.605-2.084-1.759
	l-58.892-8.557l-26.337-53.365c-0.472-0.958-1.393-1.438-2.313-1.438s-1.841,0.479-2.314,1.438l-26.337,53.365l-58.892,8.557
	c-0.028,0.004-0.054,0.013-0.082,0.018c-0.102,0.018-0.204,0.037-0.3,0.066c-0.041,0.012-0.077,0.03-0.117,0.044
	c-0.079,0.028-0.159,0.054-0.234,0.088c-0.031,0.014-0.058,0.033-0.088,0.049c-0.078,0.04-0.157,0.08-0.229,0.128
	c-0.011,0.007-0.021,0.017-0.032,0.024c-0.088,0.06-0.173,0.122-0.251,0.191c-0.003,0.003-0.005,0.006-0.008,0.008
	c-0.085,0.075-0.165,0.156-0.238,0.241c-0.004,0.005-0.007,0.01-0.011,0.015c-0.222,0.261-0.389,0.563-0.494,0.886l0,0
	c-0.283,0.875-0.111,1.897,0.654,2.642l42.615,41.539l-10.06,58.654c-0.009,0.053-0.01,0.105-0.016,0.158
	c-0.009,0.077-0.021,0.155-0.023,0.231c-0.001,0.03,0.004,0.059,0.004,0.088c0.001,0.096,0.002,0.193,0.014,0.286
	c0.003,0.022,0.009,0.042,0.012,0.064c0.015,0.099,0.031,0.198,0.057,0.292c0.002,0.008,0.006,0.015,0.008,0.023
	c0.063,0.222,0.154,0.432,0.27,0.624c0.002,0.003,0.004,0.005,0.005,0.008c0.12,0.196,0.264,0.374,0.429,0.53
	c0.001,0.001,0.002,0.001,0.003,0.002c0.083,0.078,0.17,0.151,0.262,0.218l0,0l0,0c0.744,0.54,1.77,0.693,2.716,0.195L256,242.983
	l52.674,27.693c0.118,0.062,0.238,0.114,0.358,0.157c0.118,0.042,0.236,0.073,0.355,0.097c0.002,0,0.004,0.001,0.006,0.002
	c0.108,0.021,0.216,0.033,0.323,0.039c0.012,0.001,0.025,0.004,0.037,0.005c0.099,0.005,0.197,0,0.295-0.007
	c0.02-0.001,0.04,0.001,0.06-0.001c0.097-0.009,0.191-0.027,0.286-0.047c0.02-0.004,0.04-0.005,0.06-0.01
	c0.22-0.052,0.43-0.133,0.627-0.238c0.006-0.003,0.012-0.005,0.018-0.008c0.082-0.044,0.16-0.096,0.236-0.149
	c0.018-0.012,0.037-0.022,0.055-0.035l0,0c0.745-0.541,1.209-1.47,1.028-2.525l-10.06-58.654l0,0l42.615-41.539l0,0
	c0.096-0.093,0.182-0.191,0.259-0.292c0.025-0.033,0.043-0.068,0.066-0.101c0.048-0.07,0.099-0.139,0.139-0.212
	c0.055-0.099,0.101-0.201,0.142-0.304c0.003-0.008,0.008-0.016,0.011-0.024c0.032-0.085,0.055-0.171,0.077-0.257
	c0.007-0.028,0.019-0.055,0.025-0.083c0.022-0.099,0.036-0.199,0.046-0.299c0.002-0.015,0.006-0.031,0.007-0.046
	C345.774,165.812,345.734,165.479,345.637,165.163z"/>
<g>
	<path style="fill:#49A0E8;" d="M253.982,150.325l30.657,4.455l-26.325-53.341c-0.473-0.958-1.394-1.438-2.314-1.438
		c-0.92,0-1.841,0.48-2.314,1.438l-17.554,35.568l0.269,0.546C239.803,144.444,246.377,149.22,253.982,150.325z"/>
	<path style="fill:#49A0E8;" d="M345.637,165.164c-0.004-0.014-0.006-0.029-0.011-0.043l0,0c-0.284-0.876-1.024-1.605-2.084-1.759
		l-37.318-5.423l-34.817,33.938l11.161,65.074l26.106,13.725c0.118,0.062,0.238,0.114,0.358,0.157
		c0.118,0.042,0.236,0.073,0.355,0.097c0.002,0,0.004,0.001,0.006,0.002c0.108,0.021,0.216,0.033,0.323,0.039
		c0.012,0.001,0.025,0.004,0.037,0.005c0.099,0.005,0.197,0,0.295-0.007c0.02-0.002,0.04,0,0.06-0.001
		c0.097-0.009,0.191-0.027,0.286-0.047c0.02-0.004,0.04-0.005,0.06-0.01c0.22-0.052,0.43-0.133,0.627-0.238
		c0.006-0.003,0.012-0.005,0.018-0.008c0.082-0.044,0.16-0.096,0.236-0.149c0.018-0.012,0.037-0.022,0.055-0.035
		c0.745-0.541,1.209-1.47,1.028-2.524l-10.06-58.654l0,0l42.614-41.539l0,0c0.096-0.093,0.182-0.191,0.26-0.292
		c0.025-0.033,0.043-0.068,0.066-0.101c0.048-0.07,0.099-0.139,0.139-0.212c0.055-0.099,0.101-0.201,0.142-0.304
		c0.003-0.008,0.008-0.016,0.011-0.025c0.032-0.085,0.055-0.171,0.077-0.257c0.007-0.028,0.019-0.055,0.025-0.083
		c0.022-0.099,0.036-0.199,0.046-0.3c0.001-0.015,0.006-0.031,0.007-0.046C345.774,165.812,345.734,165.479,345.637,165.164z"/>
</g>
<g>
</g>
<g>
</g>
<g>
</g>
<g>
</g>
<g>
</g>
<g>
</g>
<g>
</g>
<g>
</g>
<g>
</g>
<g>
</g>
<g>
</g>
<g>
</g>
<g>
</g>
<g>
</g>
<g>
</g>
</svg>
