<svg height="512pt" viewBox="0 0 512 512.00008" width="512pt" xmlns="http://www.w3.org/2000/svg"><path d="m512 379.585938v88.277343c0 4.875-3.953125 8.828125-8.828125 8.828125h-5.648437c-12.304688.527344-20.878907 3.371094-20.832032 17.769532-.066406 9.703124-7.949218 17.539062-17.65625 17.539062h-406.070312c-9.707032.03125-17.605469-7.804688-17.65625-17.515625.054687-14.511719-8.429688-17.351563-20.832032-17.792969h-5.648437c-4.875 0-8.828125-3.953125-8.828125-8.828125v-88.277343c0-4.875 3.953125-8.828126 8.828125-8.828126h5.648437c12.359376-.441406 20.886719-3.28125 20.832032-17.796874.050781-9.707032 7.949218-17.542969 17.65625-17.511719h406.070312c9.707032-.03125 17.605469 7.804687 17.65625 17.511719-.054687 14.515624 8.429688 17.355468 20.832032 17.796874h5.648437c4.875 0 8.828125 3.953126 8.828125 8.828126zm0 0" fill="#f6ab27"/><path d="m512 379.585938v88.277343c0 4.875-3.953125 8.828125-8.828125 8.828125h-5.648437c-12.269532.527344-20.921876 3.351563-20.832032 17.742188-.050781 9.714844-7.941406 17.566406-17.65625 17.566406h-203.035156v-176.550781h203.035156c9.679688 0 17.558594 7.796875 17.65625 17.476562-.089844 14.566407 8.472656 17.390625 20.832032 17.832031h5.648437c4.875 0 8.828125 3.953126 8.828125 8.828126zm0 0" fill="#f4cd1e"/><g fill="#ed634c"><path d="m8.828125 370.757812h494.34375c4.875 0 8.828125 3.953126 8.828125 8.828126v88.277343c0 4.875-3.953125 8.828125-8.828125 8.828125h-494.34375c-4.875 0-8.828125-3.953125-8.828125-8.828125v-88.277343c0-4.875 3.953125-8.828126 8.828125-8.828126zm0 0"/><path d="m273.65625 17.65625c0 9.75-7.90625 17.652344-17.65625 17.652344s-17.65625-7.902344-17.65625-17.652344 7.90625-17.65625 17.65625-17.65625 17.65625 7.90625 17.65625 17.65625zm0 0"/><path d="m414.898438 52.964844c0 9.75-7.90625 17.65625-17.65625 17.65625s-17.65625-7.90625-17.65625-17.65625 7.90625-17.65625 17.65625-17.65625 17.65625 7.90625 17.65625 17.65625zm0 0"/><path d="m512 132.414062c0 9.75-7.90625 17.65625-17.65625 17.65625s-17.652344-7.90625-17.652344-17.65625 7.902344-17.65625 17.652344-17.65625 17.65625 7.90625 17.65625 17.65625zm0 0"/><path d="m132.414062 52.964844c0 9.75-7.90625 17.65625-17.65625 17.65625s-17.65625-7.90625-17.65625-17.65625 7.90625-17.65625 17.65625-17.65625 17.65625 7.90625 17.65625 17.65625zm0 0"/><path d="m35.308594 132.414062c0 9.75-7.902344 17.65625-17.652344 17.65625s-17.65625-7.90625-17.65625-17.65625 7.90625-17.65625 17.65625-17.65625 17.652344 7.90625 17.652344 17.65625zm0 0"/></g><path d="m194.207031 450.207031c-3.347656 0-6.40625-1.890625-7.902343-4.882812l-9.753907-19.515625-9.710937 19.515625c-1.65625 2.785156-4.660156 4.488281-7.898438 4.488281-3.242187 0-6.242187-1.703125-7.902344-4.488281l-17.652343-35.308594c-2.179688-4.363281-.410157-9.667969 3.953125-11.847656 4.363281-2.179688 9.667968-.410157 11.847656 3.953125l9.710938 19.519531 9.753906-19.519531c1.65625-2.78125 4.660156-4.484375 7.898437-4.484375 3.242188 0 6.242188 1.703125 7.902344 4.484375l9.753906 19.519531 9.753907-19.519531c2.179687-4.363282 7.484374-6.132813 11.847656-3.953125 4.363281 2.179687 6.132812 7.484375 3.953125 11.847656l-17.652344 35.308594c-1.496094 2.992187-4.554687 4.882812-7.902344 4.882812zm0 0" fill="#445c71"/><path d="m247.171875 450.207031c-4.875 0-8.828125-3.953125-8.828125-8.828125v-35.308594c0-4.875 3.953125-8.828124 8.828125-8.828124s8.828125 3.953124 8.828125 8.828124v35.308594c0 4.875-3.953125 8.828125-8.828125 8.828125zm0 0" fill="#445c71"/><path d="m326.621094 450.207031c-2.003906 0-3.953125-.679687-5.519532-1.933593l-29.792968-23.835938v16.941406c0 4.875-3.949219 8.828125-8.824219 8.828125s-8.828125-3.953125-8.828125-8.828125v-35.308594c-.003906-3.394531 1.941406-6.492187 5.003906-7.960937 3.058594-1.46875 6.691406-1.054687 9.339844 1.066406l29.792969 23.832031v-16.9375c0-4.875 3.953125-8.828124 8.828125-8.828124s8.828125 3.953124 8.828125 8.828124v35.308594c0 4.875-3.953125 8.828125-8.828125 8.828125zm0 0" fill="#445c71"/><path d="m361.929688 432.550781c-4.875 0-8.828126-3.953125-8.828126-8.828125v-17.652344c0-4.875 3.953126-8.828124 8.828126-8.828124s8.828124 3.953124 8.828124 8.828124v17.652344c0 4.875-3.953124 8.828125-8.828124 8.828125zm0 0" fill="#445c71"/><path d="m370.757812 450.207031c0 4.875-3.953124 8.828125-8.828124 8.828125s-8.828126-3.953125-8.828126-8.828125 3.953126-8.828125 8.828126-8.828125 8.828124 3.953125 8.828124 8.828125zm0 0" fill="#445c71"/><path d="m512 432.550781v17.65625h-35.308594c-4.878906 0-8.828125-3.953125-8.828125-8.828125s3.949219-8.828125 8.828125-8.828125zm0 0" fill="#cd4f38"/><path d="m512 397.242188v17.65625h-105.929688c-4.875 0-8.828124-3.953126-8.828124-8.828126s3.953124-8.828124 8.828124-8.828124zm0 0" fill="#cd4f38"/><path d="m44.136719 441.378906c0 4.875-3.949219 8.828125-8.828125 8.828125h-35.308594v-17.65625h35.308594c4.878906 0 8.828125 3.953125 8.828125 8.828125zm0 0" fill="#cd4f38"/><path d="m114.757812 406.070312c0 4.875-3.953124 8.828126-8.828124 8.828126h-105.929688v-17.65625h105.929688c4.875 0 8.828124 3.953124 8.828124 8.828124zm0 0" fill="#cd4f38"/><path d="m388.414062 229.402344v-158.78125l-68.167968 146.722656c-3.246094 7.003906-10.671875 11.085938-18.328125 10.074219s-13.765625-6.878907-15.082031-14.488281l-30.835938-177.621094-30.835938 177.613281c-1.316406 7.609375-7.425781 13.476563-15.082031 14.488281-7.65625 1.011719-15.082031-3.070312-18.328125-10.074218l-68.167968-146.714844v158.78125c-.003907 7.648437-4.929688 14.425781-12.203126 16.785156-7.273437 2.363281-15.238281-.226562-19.734374-6.414062l-65.164063-89.703126 44.136719 185.378907h370.757812l44.136719-185.378907-65.164063 89.703126c-4.496093 6.1875-12.460937 8.777343-19.734374 6.414062-7.273438-2.359375-12.199219-9.136719-12.203126-16.785156zm0 0" fill="#f4cd1e"/><path d="m485.515625 150.070312-44.136719 185.378907h-185.378906v-300.140625l30.808594 177.613281c1.292968 7.640625 7.414062 13.542969 15.097656 14.558594 7.683594 1.011719 15.128906-3.101563 18.359375-10.144531l68.148437-146.714844v158.808594c.011719 7.648437 4.945313 14.421874 12.226563 16.773437 7.277344 2.351563 15.242187-.25 19.730469-6.445313zm0 0" fill="#f6db6d"/><path d="m256 238.34375 12.683594 18.097656 22.625 5.507813-14.785156 16.695312 1.296874 21.492188-21.820312-7.777344-21.820312 7.777344 1.296874-21.492188-14.785156-16.695312 22.625-5.507813zm0 0" fill="#ed634c"/><path d="m356.757812 303.792969c-2.339843 0-4.585937-.929688-6.242187-2.585938l-24.964844-24.964843c-2.292969-2.21875-3.214843-5.5-2.40625-8.585938.808594-3.085938 3.21875-5.496094 6.304688-6.304688 3.085937-.808593 6.371093.113282 8.585937 2.40625l24.964844 24.964844c2.523438 2.527344 3.277344 6.320313 1.910156 9.621094-1.363281 3.296875-4.582031 5.449219-8.152344 5.449219zm0 0" fill="#ed634c"/><path d="m331.792969 303.792969c-3.570313 0-6.785157-2.152344-8.152344-5.449219-1.367187-3.300781-.613281-7.09375 1.910156-9.621094l24.964844-24.964844c2.21875-2.292968 5.5-3.214843 8.585937-2.40625 3.085938.808594 5.496094 3.21875 6.304688 6.304688s-.113281 6.367188-2.40625 8.585938l-24.964844 24.964843c-1.65625 1.65625-3.902344 2.585938-6.242187 2.585938zm0 0" fill="#ed634c"/><path d="m180.207031 303.792969c-2.339843 0-4.585937-.929688-6.242187-2.585938l-24.964844-24.964843c-2.292969-2.21875-3.214844-5.5-2.40625-8.585938s3.21875-5.496094 6.304688-6.304688c3.085937-.808593 6.367187.113282 8.585937 2.40625l24.964844 24.964844c2.523437 2.527344 3.277343 6.320313 1.910156 9.621094-1.363281 3.296875-4.582031 5.449219-8.152344 5.449219zm0 0" fill="#ed634c"/><path d="m155.242188 303.792969c-3.570313 0-6.789063-2.152344-8.152344-5.449219-1.367188-3.300781-.613282-7.09375 1.910156-9.621094l24.964844-24.964844c2.21875-2.292968 5.5-3.214843 8.585937-2.40625 3.085938.808594 5.496094 3.21875 6.304688 6.304688.808593 3.085938-.113281 6.367188-2.40625 8.585938l-24.964844 24.964843c-1.65625 1.65625-3.902344 2.585938-6.242187 2.585938zm0 0" fill="#ed634c"/></svg>