<svg id="Capa_1" enable-background="new 0 0 512 512" height="512" viewBox="0 0 512 512" width="512" xmlns="http://www.w3.org/2000/svg"><g><path d="m352.409 260c-4.424 0-8.622-1.953-11.473-5.336-2.85-3.384-4.061-7.853-3.31-12.212l29.305-170c1.241-7.195 7.482-12.452 14.783-12.452h84.286c8.284 0 15 6.716 15 15v56.409c0 70.905-57.686 128.591-128.591 128.591zm41.941-170-23.848 138.336c45.753-8.52 80.498-48.742 80.498-96.927v-41.409z" fill="#f7aa00"/><path d="m159.591 260c-70.905 0-128.591-57.686-128.591-128.591v-56.409c0-8.284 6.716-15 15-15h84.286c7.301 0 13.542 5.257 14.782 12.452l29.305 170c.751 4.36-.46 8.829-3.31 12.212s-7.048 5.336-11.472 5.336zm-98.591-170v41.409c0 48.185 34.745 88.407 80.498 96.927l-23.848-138.336z" fill="#ffd228"/><path d="m316 392h-120c-6.067 0-11.537-3.655-13.858-9.26s-1.038-12.057 3.252-16.347c16.512-16.512 25.606-38.467 25.606-61.819v-13.542c0-8.284 6.716-15 15-15h60c8.284 0 15 6.716 15 15v13.542c0 23.353 9.094 45.307 25.606 61.819 4.29 4.29 5.573 10.742 3.252 16.347-2.322 5.605-7.791 9.26-13.858 9.26z" fill="#ffd228"/><path d="m301 304.574v-13.542c0-8.284-6.716-15-15-15h-30v115.968h60c6.067 0 11.536-3.655 13.858-9.26 2.321-5.605 1.038-12.057-3.252-16.347-16.512-16.512-25.606-38.466-25.606-61.819z" fill="#f7aa00"/><path d="m256 310c-33.782 0-66.003-12.678-90.727-35.699s-39.666-54.256-42.073-87.952l-12.163-170.28c-.297-4.153 1.146-8.243 3.984-11.291s6.815-4.778 10.979-4.778h260c4.164 0 8.141 1.731 10.978 4.778 2.838 3.047 4.281 7.137 3.984 11.291l-12.163 170.28c-2.407 33.696-17.349 64.932-42.072 87.952-24.724 23.021-56.945 35.699-90.727 35.699z" fill="#ffeb3c"/><path d="m346.727 274.301c24.724-23.021 39.665-54.256 42.072-87.952l12.163-170.28c.297-4.153-1.146-8.243-3.984-11.291-2.837-3.047-6.814-4.778-10.978-4.778h-130v310c33.782 0 66.003-12.678 90.727-35.699z" fill="#ffd228"/><path d="m356 452h-200c-8.284 0-15-6.716-15-15v-30c0-24.813 20.187-45 45-45h140c24.813 0 45 20.187 45 45v30c0 8.284-6.716 15-15 15z" fill="#ffeb3c"/><path d="m326 362h-70v90h100c8.284 0 15-6.716 15-15v-30c0-24.813-20.187-45-45-45z" fill="#ffd228"/><path d="m396 512h-280c-8.284 0-15-6.716-15-15v-30c0-24.813 20.187-45 45-45h220c24.813 0 45 20.187 45 45v30c0 8.284-6.716 15-15 15z" fill="#ffd228"/><path d="m411 497v-30c0-24.813-20.187-45-45-45h-110v90h140c8.284 0 15-6.716 15-15z" fill="#f7aa00"/><path d="m426 512h-340c-8.284 0-15-6.716-15-15s6.716-15 15-15h340c8.284 0 15 6.716 15 15s-6.716 15-15 15z" fill="#ffeb3c"/><path d="m441 497c0-8.284-6.716-15-15-15h-170v30h170c8.284 0 15-6.716 15-15z" fill="#ffd228"/><path d="m406 30h-300c-8.284 0-15-6.716-15-15s6.716-15 15-15h300c8.284 0 15 6.716 15 15s-6.716 15-15 15z" fill="#ffd228"/><path d="m406 30c8.284 0 15-6.716 15-15s-6.716-15-15-15h-150v30z" fill="#f7aa00"/><path d="m259.894 235c-8.284 0-15-6.716-15-15v-115h-12.787c-8.284 0-15-6.716-15-15s6.716-15 15-15h27.787c8.284 0 15 6.716 15 15v130c0 8.284-6.716 15-15 15z" fill="#ffd228"/><path d="m259.894 75h-3.894v159.471c1.244.334 2.544.529 3.894.529 8.284 0 15-6.716 15-15v-130c0-8.284-6.716-15-15-15z" fill="#f7aa00"/></g></svg>